<svg width="674" height="217" viewBox="0 0 674 217" fill="none" xmlns="http://www.w3.org/2000/svg">
<path d="M175.833 217H126.552L74.74 80.0337L50.9185 217H0L37.5189 0H87.2463L138.909 136.966L162.582 0H213.5L175.833 217Z" fill="black" fill-opacity="0.05"/>
<path d="M263.674 217H212.756L250.424 0H301.193L263.674 217Z" fill="black" fill-opacity="0.05"/>
<path d="M387.249 136.817L360.747 161.707L351.07 217H300.151L337.67 0H388.737L372.509 92.851L393.651 67.0673L449.929 0H516.034L426.107 98.2163L475.984 217H417.77L387.249 136.817Z" fill="black" fill-opacity="0.05"/>
<path d="M637.672 125.043H558.019L548.937 176.76H643.181L636.183 217H491.021L528.54 0H674L667.002 40.3894H572.61L564.57 86.1442H644.372L637.672 125.043Z" fill="black" fill-opacity="0.05"/>
</svg>
